<svg xmlns="http://www.w3.org/2000/svg" viewBox="0 0 1200 675" preserveAspectRatio="xMidYMid slice"><defs><linearGradient id="bg" x1="0" y1="0" x2="0" y2="1"><stop offset="0" stop-color="#14142b"/><stop offset="0.7" stop-color="#3b2a55"/><stop offset="1" stop-color="#7a3e5c"/></linearGradient><radialGradient id="warm"><stop offset="0" stop-color="#ffcf7a" stop-opacity=".55"/><stop offset="1" stop-color="#ffcf7a" stop-opacity="0"/></radialGradient></defs><rect width="1200" height="675" fill="url(#bg)"/><circle cx="523" cy="379" r="2" fill="#fff" opacity="0.88"/><circle cx="1085" cy="14" r="2.5" fill="#fff" opacity="0.87"/><circle cx="510" cy="332" r="1" fill="#fff" opacity="0.94"/><circle cx="231" cy="190" r="2.5" fill="#fff" opacity="0.92"/><circle cx="779" cy="278" r="1" fill="#fff" opacity="0.74"/><circle cx="26" cy="374" r="1.5" fill="#fff" opacity="0.64"/><circle cx="372" cy="199" r="1.5" fill="#fff" opacity="0.86"/><circle cx="147" cy="71" r="2.5" fill="#fff" opacity="0.48"/><circle cx="3" cy="2" r="1.5" fill="#fff" opacity="0.86"/><circle cx="339" cy="85" r="2" fill="#fff" opacity="0.59"/><circle cx="407" cy="276" r="1.5" fill="#fff" opacity="0.51"/><circle cx="403" cy="196" r="2" fill="#fff" opacity="0.41"/><circle cx="849" cy="84" r="1.5" fill="#fff" opacity="0.56"/><circle cx="679" cy="154" r="1" fill="#fff" opacity="0.76"/><circle cx="692" cy="33" r="2" fill="#fff" opacity="0.61"/><circle cx="626" cy="246" r="2" fill="#fff" opacity="0.51"/><circle cx="967" cy="360" r="1.5" fill="#fff" opacity="0.43"/><circle cx="46" cy="183" r="2.5" fill="#fff" opacity="0.41"/><circle cx="857" cy="187" r="2.5" fill="#fff" opacity="0.75"/><circle cx="18" cy="231" r="1" fill="#fff" opacity="0.82"/><circle cx="402" cy="60" r="1.5" fill="#fff" opacity="0.96"/><circle cx="946" cy="176" r="2" fill="#fff" opacity="0.94"/><circle cx="513" cy="236" r="1" fill="#fff" opacity="0.75"/><circle cx="752" cy="151" r="1" fill="#fff" opacity="0.66"/><circle cx="186" cy="106" r="2" fill="#fff" opacity="0.71"/><circle cx="742" cy="75" r="2" fill="#fff" opacity="0.57"/><circle cx="1116" cy="47" r="2" fill="#fff" opacity="0.81"/><circle cx="627" cy="90" r="1" fill="#fff" opacity="0.78"/><circle cx="633" cy="247" r="1.5" fill="#fff" opacity="0.83"/><circle cx="165" cy="307" r="2.5" fill="#fff" opacity="0.42"/><circle cx="704" cy="128" r="2.5" fill="#fff" opacity="0.79"/><circle cx="298" cy="28" r="1" fill="#fff" opacity="0.88"/><circle cx="684" cy="106" r="1.5" fill="#fff" opacity="0.99"/><circle cx="1155" cy="67" r="2.5" fill="#fff" opacity="0.46"/><circle cx="889" cy="190" r="1.5" fill="#fff" opacity="0.44"/><circle cx="861" cy="150" r="1.5" fill="#fff" opacity="0.67"/><circle cx="346" cy="267" r="2.5" fill="#fff" opacity="0.98"/><circle cx="650" cy="245" r="2" fill="#fff" opacity="0.57"/><circle cx="826" cy="75" r="1" fill="#fff" opacity="0.63"/><circle cx="1089" cy="91" r="2.5" fill="#fff" opacity="0.92"/><circle cx="368" cy="45" r="2.5" fill="#fff" opacity="0.56"/><circle cx="1122" cy="257" r="2" fill="#fff" opacity="0.44"/><circle cx="728" cy="355" r="1" fill="#fff" opacity="0.86"/><circle cx="744" cy="286" r="2" fill="#fff" opacity="0.90"/><circle cx="542" cy="353" r="2" fill="#fff" opacity="0.97"/><circle cx="696" cy="332" r="1.5" fill="#fff" opacity="0.75"/><circle cx="23" cy="242" r="2" fill="#fff" opacity="0.60"/><circle cx="560" cy="237" r="2" fill="#fff" opacity="0.89"/><circle cx="730" cy="178" r="2" fill="#fff" opacity="0.79"/><circle cx="836" cy="179" r="1.5" fill="#fff" opacity="0.92"/><circle cx="921" cy="186" r="2" fill="#fff" opacity="0.71"/><circle cx="1084" cy="85" r="1.5" fill="#fff" opacity="0.90"/><circle cx="977" cy="144" r="1" fill="#fff" opacity="0.83"/><circle cx="853" cy="87" r="2.5" fill="#fff" opacity="0.58"/><circle cx="1132" cy="326" r="2" fill="#fff" opacity="0.83"/><circle cx="56" cy="100" r="1.5" fill="#fff" opacity="0.75"/><circle cx="370" cy="112" r="1.5" fill="#fff" opacity="0.78"/><circle cx="85" cy="241" r="1.5" fill="#fff" opacity="0.50"/><circle cx="273" cy="56" r="2" fill="#fff" opacity="0.98"/><circle cx="988" cy="99" r="1" fill="#fff" opacity="0.65"/><circle cx="719" cy="194" r="1" fill="#fff" opacity="0.75"/><circle cx="487" cy="367" r="2" fill="#fff" opacity="0.40"/><circle cx="830" cy="142" r="2.5" fill="#fff" opacity="0.92"/><circle cx="1120" cy="191" r="1" fill="#fff" opacity="0.73"/><circle cx="617" cy="48" r="2" fill="#fff" opacity="0.73"/><circle cx="695" cy="297" r="2" fill="#fff" opacity="0.97"/><circle cx="264" cy="214" r="2.5" fill="#fff" opacity="0.89"/><circle cx="1102" cy="189" r="2.5" fill="#fff" opacity="0.49"/><circle cx="783" cy="288" r="2.5" fill="#fff" opacity="0.97"/><circle cx="272" cy="311" r="1" fill="#fff" opacity="0.61"/><circle cx="1" cy="195" r="1" fill="#fff" opacity="0.60"/><circle cx="1104" cy="72" r="2" fill="#fff" opacity="0.78"/><circle cx="1155" cy="192" r="2.5" fill="#fff" opacity="0.66"/><circle cx="463" cy="252" r="2" fill="#fff" opacity="0.69"/><circle cx="777" cy="196" r="1.5" fill="#fff" opacity="0.76"/><circle cx="532" cy="379" r="2" fill="#fff" opacity="0.70"/><circle cx="850" cy="10" r="2" fill="#fff" opacity="0.97"/><circle cx="629" cy="251" r="2" fill="#fff" opacity="0.49"/><circle cx="48" cy="62" r="2.5" fill="#fff" opacity="0.55"/><circle cx="81" cy="69" r="2.5" fill="#fff" opacity="0.41"/><circle cx="930" cy="170" r="260" fill="url(#warm)"/><circle cx="930" cy="170" r="70" fill="#ffe9b5"/><circle cx="955" cy="156" r="62" fill="#2c2147"/><path d="M0 330 C300 306 700 354 1200 330" stroke="#ffcf7a" stroke-width="1.2" fill="none" opacity="0.85"/><path d="M0 364 C300 337 700 391 1200 364" stroke="#ffcf7a" stroke-width="1.7" fill="none" opacity="0.77"/><path d="M0 398 C300 368 700 428 1200 398" stroke="#ffcf7a" stroke-width="2.2" fill="none" opacity="0.69"/><path d="M0 432 C300 399 700 465 1200 432" stroke="#ffcf7a" stroke-width="2.7" fill="none" opacity="0.61"/><path d="M0 466 C300 430 700 502 1200 466" stroke="#ffcf7a" stroke-width="3.2" fill="none" opacity="0.53"/><path d="M0 500 C300 461 700 539 1200 500" stroke="#ffcf7a" stroke-width="3.7" fill="none" opacity="0.45"/><path d="M0 600 Q300 540 600 590 T1200 570 V675 H0Z" fill="#120c22"/><circle cx="1140" cy="631" r="4" fill="#ffcf7a" opacity=".8"/><circle cx="548" cy="620" r="3" fill="#ffcf7a" opacity=".8"/><circle cx="553" cy="622" r="4" fill="#ffcf7a" opacity=".8"/><circle cx="366" cy="596" r="4" fill="#ffcf7a" opacity=".8"/><circle cx="1058" cy="637" r="4" fill="#ffcf7a" opacity=".8"/><circle cx="1111" cy="642" r="5" fill="#ffcf7a" opacity=".8"/><circle cx="292" cy="562" r="3" fill="#ffcf7a" opacity=".8"/><circle cx="665" cy="596" r="5" fill="#ffcf7a" opacity=".8"/><circle cx="738" cy="638" r="4" fill="#ffcf7a" opacity=".8"/><circle cx="1135" cy="563" r="4" fill="#ffcf7a" opacity=".8"/><circle cx="766" cy="606" r="5" fill="#ffcf7a" opacity=".8"/><circle cx="321" cy="564" r="3" fill="#ffcf7a" opacity=".8"/></svg>