<svg xmlns="http://www.w3.org/2000/svg" viewBox="0 0 1200 675" preserveAspectRatio="xMidYMid slice"><defs><linearGradient id="bg" x1="0" y1="0" x2="0" y2="1"><stop offset="0" stop-color="#10172b"/><stop offset="1" stop-color="#27304f"/></linearGradient><linearGradient id="cone" x1="0" y1="0" x2="0" y2="1"><stop offset="0" stop-color="#fff2c9" stop-opacity=".7"/><stop offset="1" stop-color="#fff2c9" stop-opacity="0"/></linearGradient></defs><rect width="1200" height="675" fill="url(#bg)"/><polygon points="286,0 314,0 420,520 110,520" fill="url(#cone)"/><polygon points="586,0 614,0 790,520 410,520" fill="url(#cone)"/><polygon points="886,0 914,0 1090,520 780,520" fill="url(#cone)"/><ellipse cx="600" cy="520" rx="420" ry="60" fill="#d4af37" opacity=".35"/><ellipse cx="600" cy="505" rx="330" ry="40" fill="#d4af37" opacity=".5"/><rect x="540" y="380" width="120" height="125" rx="6" fill="#d4af37"/><rect x="552" y="392" width="96" height="14" fill="#10172b" opacity=".35"/><circle cx="600" cy="334" r="26" fill="#0a0f1f"/><rect x="578" y="360" width="44" height="30" rx="14" fill="#0a0f1f"/><circle cx="-20" cy="564" r="19" fill="#070b17"/><rect x="-44" y="582" width="48" height="60" rx="22" fill="#070b17"/><circle cx="42" cy="564" r="19" fill="#070b17"/><rect x="18" y="582" width="48" height="60" rx="22" fill="#070b17"/><circle cx="104" cy="564" r="19" fill="#070b17"/><rect x="80" y="582" width="48" height="60" rx="22" fill="#070b17"/><circle cx="166" cy="564" r="19" fill="#070b17"/><rect x="142" y="582" width="48" height="60" rx="22" fill="#070b17"/><circle cx="228" cy="564" r="19" fill="#070b17"/><rect x="204" y="582" width="48" height="60" rx="22" fill="#070b17"/><circle cx="290" cy="564" r="19" fill="#070b17"/><rect x="266" y="582" width="48" height="60" rx="22" fill="#070b17"/><circle cx="352" cy="564" r="19" fill="#070b17"/><rect x="328" y="582" width="48" height="60" rx="22" fill="#070b17"/><circle cx="414" cy="564" r="19" fill="#070b17"/><rect x="390" y="582" width="48" height="60" rx="22" fill="#070b17"/><circle cx="476" cy="564" r="19" fill="#070b17"/><rect x="452" y="582" width="48" height="60" rx="22" fill="#070b17"/><circle cx="538" cy="564" r="19" fill="#070b17"/><rect x="514" y="582" width="48" height="60" rx="22" fill="#070b17"/><circle cx="600" cy="564" r="19" fill="#070b17"/><rect x="576" y="582" width="48" height="60" rx="22" fill="#070b17"/><circle cx="662" cy="564" r="19" fill="#070b17"/><rect x="638" y="582" width="48" height="60" rx="22" fill="#070b17"/><circle cx="724" cy="564" r="19" fill="#070b17"/><rect x="700" y="582" width="48" height="60" rx="22" fill="#070b17"/><circle cx="786" cy="564" r="19" fill="#070b17"/><rect x="762" y="582" width="48" height="60" rx="22" fill="#070b17"/><circle cx="848" cy="564" r="19" fill="#070b17"/><rect x="824" y="582" width="48" height="60" rx="22" fill="#070b17"/><circle cx="910" cy="564" r="19" fill="#070b17"/><rect x="886" y="582" width="48" height="60" rx="22" fill="#070b17"/><circle cx="972" cy="564" r="19" fill="#070b17"/><rect x="948" y="582" width="48" height="60" rx="22" fill="#070b17"/><circle cx="1034" cy="564" r="19" fill="#070b17"/><rect x="1010" y="582" width="48" height="60" rx="22" fill="#070b17"/><circle cx="1096" cy="564" r="19" fill="#070b17"/><rect x="1072" y="582" width="48" height="60" rx="22" fill="#070b17"/><circle cx="1158" cy="564" r="19" fill="#070b17"/><rect x="1134" y="582" width="48" height="60" rx="22" fill="#070b17"/><circle cx="1220" cy="564" r="19" fill="#070b17"/><rect x="1196" y="582" width="48" height="60" rx="22" fill="#070b17"/><circle cx="10" cy="614" r="19" fill="#070b17"/><rect x="-14" y="632" width="48" height="60" rx="22" fill="#070b17"/><circle cx="72" cy="614" r="19" fill="#070b17"/><rect x="48" y="632" width="48" height="60" rx="22" fill="#070b17"/><circle cx="134" cy="614" r="19" fill="#070b17"/><rect x="110" y="632" width="48" height="60" rx="22" fill="#070b17"/><circle cx="196" cy="614" r="19" fill="#070b17"/><rect x="172" y="632" width="48" height="60" rx="22" fill="#070b17"/><circle cx="258" cy="614" r="19" fill="#070b17"/><rect x="234" y="632" width="48" height="60" rx="22" fill="#070b17"/><circle cx="320" cy="614" r="19" fill="#070b17"/><rect x="296" y="632" width="48" height="60" rx="22" fill="#070b17"/><circle cx="382" cy="614" r="19" fill="#070b17"/><rect x="358" y="632" width="48" height="60" rx="22" fill="#070b17"/><circle cx="444" cy="614" r="19" fill="#070b17"/><rect x="420" y="632" width="48" height="60" rx="22" fill="#070b17"/><circle cx="506" cy="614" r="19" fill="#070b17"/><rect x="482" y="632" width="48" height="60" rx="22" fill="#070b17"/><circle cx="568" cy="614" r="19" fill="#070b17"/><rect x="544" y="632" width="48" height="60" rx="22" fill="#070b17"/><circle cx="630" cy="614" r="19" fill="#070b17"/><rect x="606" y="632" width="48" height="60" rx="22" fill="#070b17"/><circle cx="692" cy="614" r="19" fill="#070b17"/><rect x="668" y="632" width="48" height="60" rx="22" fill="#070b17"/><circle cx="754" cy="614" r="19" fill="#070b17"/><rect x="730" y="632" width="48" height="60" rx="22" fill="#070b17"/><circle cx="816" cy="614" r="19" fill="#070b17"/><rect x="792" y="632" width="48" height="60" rx="22" fill="#070b17"/><circle cx="878" cy="614" r="19" fill="#070b17"/><rect x="854" y="632" width="48" height="60" rx="22" fill="#070b17"/><circle cx="940" cy="614" r="19" fill="#070b17"/><rect x="916" y="632" width="48" height="60" rx="22" fill="#070b17"/><circle cx="1002" cy="614" r="19" fill="#070b17"/><rect x="978" y="632" width="48" height="60" rx="22" fill="#070b17"/><circle cx="1064" cy="614" r="19" fill="#070b17"/><rect x="1040" y="632" width="48" height="60" rx="22" fill="#070b17"/><circle cx="1126" cy="614" r="19" fill="#070b17"/><rect x="1102" y="632" width="48" height="60" rx="22" fill="#070b17"/><circle cx="1188" cy="614" r="19" fill="#070b17"/><rect x="1164" y="632" width="48" height="60" rx="22" fill="#070b17"/></svg>